<?xml version="1.0" encoding="utf-8"?>
<!-- Generator: Adobe Illustrator 25.2.3, SVG Export Plug-In . SVG Version: 6.00 Build 0)  -->
<svg version="1.1" id="Layer_1" xmlns="http://www.w3.org/2000/svg" xmlns:xlink="http://www.w3.org/1999/xlink" x="0px" y="0px"
	 viewBox="0 0 174.8 184.7" style="enable-background:new 0 0 174.8 184.7;" xml:space="preserve">
<style type="text/css">
	.st0{fill:url(#SVGID_1_);}
	.st1{fill:url(#SVGID_2_);}
	.st2{fill:url(#SVGID_3_);}
	.st3{fill:url(#SVGID_4_);}
	.st4{fill:url(#SVGID_5_);}
</style>
<g>
	<linearGradient id="SVGID_1_" gradientUnits="userSpaceOnUse" x1="4.6542" y1="139.5993" x2="120.5662" y2="-38.0603">
		<stop  offset="0" style="stop-color:#00E6B1"/>
		<stop  offset="0.516" style="stop-color:#1FABF9"/>
		<stop  offset="1" style="stop-color:#6714FE"/>
	</linearGradient>
	<path class="st0" d="M25.2,153.8h-7.8c-2.7,0-4.9-2.2-4.9-4.9V79.5c0-2.7,2.2-4.9,4.9-4.9h7.8c2.7,0,4.9,2.2,4.9,4.9v69.4
		C30,151.6,27.8,153.8,25.2,153.8z"/>
	<linearGradient id="SVGID_2_" gradientUnits="userSpaceOnUse" x1="22.7715" y1="151.4197" x2="138.6835" y2="-26.2398">
		<stop  offset="0" style="stop-color:#00E6B1"/>
		<stop  offset="0.516" style="stop-color:#1FABF9"/>
		<stop  offset="1" style="stop-color:#6714FE"/>
	</linearGradient>
	<path class="st1" d="M58.7,166.5h-7.8c-2.7,0-4.9-2.2-4.9-4.9V42.9c0-2.7,2.2-4.9,4.9-4.9h7.8c2.7,0,4.9,2.2,4.9,4.9v118.8
		C63.6,164.4,61.4,166.5,58.7,166.5z"/>
	<linearGradient id="SVGID_3_" gradientUnits="userSpaceOnUse" x1="98.8747" y1="201.0724" x2="214.7867" y2="23.4128">
		<stop  offset="0" style="stop-color:#00E6B1"/>
		<stop  offset="0.516" style="stop-color:#1FABF9"/>
		<stop  offset="1" style="stop-color:#6714FE"/>
	</linearGradient>
	<path class="st2" d="M159.5,153.8h-7.8c-2.7,0-4.9-2.2-4.9-4.9V79.5c0-2.7,2.2-4.9,4.9-4.9h7.8c2.7,0,4.9,2.2,4.9,4.9v69.4
		C164.3,151.6,162.2,153.8,159.5,153.8z"/>
	<linearGradient id="SVGID_4_" gradientUnits="userSpaceOnUse" x1="69.8818" y1="182.1563" x2="185.7938" y2="4.4967">
		<stop  offset="0" style="stop-color:#00E6B1"/>
		<stop  offset="0.1195" style="stop-color:#07D8C2"/>
		<stop  offset="0.516" style="stop-color:#1FABF9"/>
		<stop  offset="1" style="stop-color:#6714FE"/>
	</linearGradient>
	<path class="st3" d="M125.9,166.5h-7.8c-2.7,0-4.9-2.2-4.9-4.9V42.9c0-2.7,2.2-4.9,4.9-4.9h7.8c2.7,0,4.9,2.2,4.9,4.9v118.8
		C130.8,164.4,128.6,166.5,125.9,166.5z"/>
	<linearGradient id="SVGID_5_" gradientUnits="userSpaceOnUse" x1="41.6814" y1="163.7573" x2="157.5934" y2="-13.9023">
		<stop  offset="0" style="stop-color:#00E6B1"/>
		<stop  offset="0.516" style="stop-color:#1FABF9"/>
		<stop  offset="1" style="stop-color:#6714FE"/>
	</linearGradient>
	<path class="st4" d="M92.3,183h-7.8c-2.7,0-4.9-2.2-4.9-4.9V6.2c0-2.7,2.2-4.9,4.9-4.9h7.8c2.7,0,4.9,2.2,4.9,4.9v172
		C97.2,180.8,95,183,92.3,183z"/>
</g>
</svg>
