<?xml version="1.0" encoding="utf-8"?>
<!-- Generator: Adobe Illustrator 25.2.3, SVG Export Plug-In . SVG Version: 6.00 Build 0)  -->
<svg version="1.1" id="Layer_1" xmlns="http://www.w3.org/2000/svg" xmlns:xlink="http://www.w3.org/1999/xlink" x="0px" y="0px"
	 viewBox="0 0 209 209" style="enable-background:new 0 0 209 209;" xml:space="preserve">
<style type="text/css">
	.st0{fill:#FFFFFF;}
	.st1{fill:url(#SVGID_1_);}
	.st2{fill:url(#SVGID_2_);}
	.st3{fill:url(#SVGID_3_);}
	.st4{fill:url(#SVGID_4_);}
	.st5{fill:url(#SVGID_5_);}
</style>
<g id="Layer_2_1_">
	<g id="Layer_1-2">
		<circle class="st0" cx="104.5" cy="104.4" r="103.8"/>
	</g>
</g>
<g>
	<linearGradient id="SVGID_1_" gradientUnits="userSpaceOnUse" x1="35.9523" y1="142.182" x2="130.7938" y2="-3.1825">
		<stop  offset="0" style="stop-color:#00E6B1"/>
		<stop  offset="0.516" style="stop-color:#1FABF9"/>
		<stop  offset="1" style="stop-color:#6714FE"/>
	</linearGradient>
	<path class="st1" d="M52.7,153.8h-6.4c-2.2,0-4-1.8-4-4V93c0-2.2,1.8-4,4-4h6.4c2.2,0,4,1.8,4,4v56.8
		C56.7,152,54.9,153.8,52.7,153.8z"/>
	<linearGradient id="SVGID_2_" gradientUnits="userSpaceOnUse" x1="50.7763" y1="151.8538" x2="145.6178" y2="6.4892">
		<stop  offset="0" style="stop-color:#00E6B1"/>
		<stop  offset="0.516" style="stop-color:#1FABF9"/>
		<stop  offset="1" style="stop-color:#6714FE"/>
	</linearGradient>
	<path class="st2" d="M80.2,164.2h-6.4c-2.2,0-4-1.8-4-4V63.1c0-2.2,1.8-4,4-4h6.4c2.2,0,4,1.8,4,4v97.2
		C84.2,162.5,82.4,164.2,80.2,164.2z"/>
	<linearGradient id="SVGID_3_" gradientUnits="userSpaceOnUse" x1="113.0454" y1="192.4806" x2="207.8869" y2="47.116">
		<stop  offset="0" style="stop-color:#00E6B1"/>
		<stop  offset="0.516" style="stop-color:#1FABF9"/>
		<stop  offset="1" style="stop-color:#6714FE"/>
	</linearGradient>
	<path class="st3" d="M162.6,153.8h-6.4c-2.2,0-4-1.8-4-4V93c0-2.2,1.8-4,4-4h6.4c2.2,0,4,1.8,4,4v56.8
		C166.6,152,164.8,153.8,162.6,153.8z"/>
	<linearGradient id="SVGID_4_" gradientUnits="userSpaceOnUse" x1="89.3228" y1="177.003" x2="184.1643" y2="31.6385">
		<stop  offset="0" style="stop-color:#00E6B1"/>
		<stop  offset="0.1195" style="stop-color:#07D8C2"/>
		<stop  offset="0.516" style="stop-color:#1FABF9"/>
		<stop  offset="1" style="stop-color:#6714FE"/>
	</linearGradient>
	<path class="st4" d="M135.2,164.2h-6.4c-2.2,0-4-1.8-4-4V63.1c0-2.2,1.8-4,4-4h6.4c2.2,0,4,1.8,4,4v97.2
		C139.1,162.5,137.4,164.2,135.2,164.2z"/>
	<linearGradient id="SVGID_5_" gradientUnits="userSpaceOnUse" x1="66.2487" y1="161.9486" x2="161.0902" y2="16.584">
		<stop  offset="0" style="stop-color:#00E6B1"/>
		<stop  offset="0.516" style="stop-color:#1FABF9"/>
		<stop  offset="1" style="stop-color:#6714FE"/>
	</linearGradient>
	<path class="st5" d="M107.7,177.7h-6.4c-2.2,0-4-1.8-4-4V33c0-2.2,1.8-4,4-4h6.4c2.2,0,4,1.8,4,4v140.7
		C111.7,175.9,109.9,177.7,107.7,177.7z"/>
</g>
</svg>
