<svg xmlns="http://www.w3.org/2000/svg" viewBox="0 0 124.4 124.4"><defs><style>.cls-1{fill:#26a17b;}.cls-2{fill:#fff;}</style></defs><title>USDT</title><g id="Layer_2" data-name="Layer 2"><g id="Layer_1-2" data-name="Layer 1"><circle class="cls-1" cx="62.2" cy="62.2" r="62.2"/><path class="cls-2" d="M68.83,67.94h0c-.43,0-2.65.16-7.59.16-4,0-6.72-.11-7.7-.16h0C38.35,67.27,27,64.63,27,61.46S38.36,55.65,53.54,55V65.31c1,.07,3.84.24,7.77.24,4.72,0,7.08-.2,7.52-.24V55c15.16.68,26.46,3.32,26.46,6.48S84,67.27,68.83,68m0-14V44.68H90V30.59H32.4V44.68H53.55v9.24c-17.19.79-30.11,4.19-30.11,8.27s12.93,7.48,30.11,8.28v29.62H68.84V70.47C86,69.68,98.9,66.28,98.9,62.2S86,54.72,68.84,53.93"/></g></g></svg>