<?xml version="1.0" encoding="utf-8"?>
<!-- Generator: Adobe Illustrator 25.2.3, SVG Export Plug-In . SVG Version: 6.00 Build 0)  -->
<svg version="1.1" id="Layer_1" xmlns="http://www.w3.org/2000/svg" xmlns:xlink="http://www.w3.org/1999/xlink" x="0px" y="0px"
	 viewBox="0 0 174.8 184.7" style="enable-background:new 0 0 174.8 184.7;" xml:space="preserve">
<style type="text/css">
	.st0{fill:#FFFFFF;}
</style>
<g>
	<path class="st0" d="M25.3,153.7h-7.9c-2.7,0-4.9-2.2-4.9-4.9V79.3c0-2.7,2.2-4.9,4.9-4.9h7.9c2.7,0,4.9,2.2,4.9,4.9v69.5
		C30.2,151.5,28,153.7,25.3,153.7z"/>
	<path class="st0" d="M58.9,166.5h-7.9c-2.7,0-4.9-2.2-4.9-4.9v-119c0-2.7,2.2-4.9,4.9-4.9h7.9c2.7,0,4.9,2.2,4.9,4.9v119
		C63.8,164.3,61.6,166.5,58.9,166.5z"/>
	<path class="st0" d="M159.8,153.7H152c-2.7,0-4.9-2.2-4.9-4.9V79.3c0-2.7,2.2-4.9,4.9-4.9h7.9c2.7,0,4.9,2.2,4.9,4.9v69.5
		C164.7,151.5,162.5,153.7,159.8,153.7z"/>
	<path class="st0" d="M126.2,166.5h-7.9c-2.7,0-4.9-2.2-4.9-4.9v-119c0-2.7,2.2-4.9,4.9-4.9h7.9c2.7,0,4.9,2.2,4.9,4.9v119
		C131.1,164.3,128.9,166.5,126.2,166.5z"/>
	<path class="st0" d="M92.6,183h-7.9c-2.7,0-4.9-2.2-4.9-4.9V5.9C79.8,3.2,82,1,84.7,1h7.9c2.7,0,4.9,2.2,4.9,4.9v172.3
		C97.4,180.8,95.3,183,92.6,183z"/>
</g>
</svg>
