<svg width="294" height="294" viewBox="0 0 294 294" fill="none" xmlns="http://www.w3.org/2000/svg">
<g clip-path="url(#clip0_12_65)">
<path d="M61.055 139.819C61.0547 138.179 61.3784 136.555 62.0076 135.041C62.6368 133.526 63.559 132.151 64.7213 130.994C65.8835 129.837 67.2629 128.921 68.7803 128.298C70.2976 127.676 71.923 127.359 73.563 127.367L94.3 127.435C97.6064 127.435 100.777 128.748 103.115 131.087C105.453 133.425 106.767 136.596 106.767 139.902V218.316C109.103 217.624 112.099 216.886 115.381 216.116C117.66 215.58 119.691 214.289 121.144 212.454C122.598 210.619 123.389 208.347 123.39 206.006V108.74C123.39 105.433 124.703 102.262 127.041 99.9231C129.379 97.5846 132.55 96.2705 135.857 96.27H156.636C159.943 96.2708 163.114 97.585 165.452 99.9235C167.79 102.262 169.103 105.433 169.103 108.74V199.016C169.103 199.016 174.303 196.91 179.372 194.771C181.254 193.975 182.86 192.642 183.99 190.939C185.12 189.236 185.723 187.238 185.725 185.194V77.567C185.725 75.93 186.047 74.3089 186.673 72.7964C187.3 71.2839 188.218 69.9096 189.375 68.7519C190.533 67.5942 191.907 66.6759 193.419 66.0493C194.932 65.4227 196.553 65.1002 198.19 65.1H218.969C222.275 65.1 225.447 66.4135 227.785 68.7515C230.123 71.0894 231.437 74.2605 231.437 77.567V166.192C249.451 153.137 267.708 137.434 282.196 118.553C284.298 115.812 285.689 112.594 286.245 109.185C286.8 105.776 286.504 102.282 285.381 99.016C275.578 70.4472 257.19 45.6036 232.732 27.8821C208.273 10.1605 178.938 0.426188 148.737 0.0100159C67.2979 -1.08398 -0.00705118 65.395 0.000948818 146.844C-0.0790143 172.617 6.64771 197.954 19.5009 220.294C21.2735 223.35 23.8812 225.836 27.0178 227.461C30.1544 229.086 33.6895 229.782 37.208 229.467C41.139 229.121 46.033 228.632 51.851 227.949C54.3833 227.661 56.7212 226.451 58.4193 224.551C60.1175 222.65 61.0574 220.192 61.0599 217.643V139.819" fill="white"/>
<path d="M60.6029 265.577C82.5049 281.51 108.388 291.074 135.387 293.21C162.387 295.346 189.452 289.972 213.587 277.681C237.722 265.391 257.987 246.663 272.139 223.571C286.291 200.478 293.779 173.92 293.775 146.836C293.775 143.455 293.618 140.112 293.392 136.787C239.75 216.787 140.706 254.192 60.6019 265.58" fill="white"/>
</g>
<defs>
<clipPath id="clip0_12_65">
<rect width="293.775" height="293.667" fill="white"/>
</clipPath>
</defs>
</svg>
