<?xml version="1.0" encoding="utf-8"?>
<!-- Generator: Adobe Illustrator 22.0.0, SVG Export Plug-In . SVG Version: 6.00 Build 0)  -->
<svg version="1.1" id="Layer_1" xmlns="http://www.w3.org/2000/svg" xmlns:xlink="http://www.w3.org/1999/xlink" x="0px" y="0px"
	 viewBox="0 0 540 540" style="enable-background:new 0 0 540 540;" xml:space="preserve">
<style type="text/css">
	.st0{fill:none;}
	.st1{fill:#F0F0F0;}
	.st2{fill:#1C2143;}
	.st3{fill:#2EA7E0;}
</style>
<g id="Layer_x0020_1">
	<rect class="st0" width="540" height="540"/>
	<g id="_1851889811152">
		<circle class="st1" cx="270" cy="270" r="270"/>
		<g>
			<path class="st2" d="M259,44.7c6.6,1.2,20.2,19.8,24,25.5c38.3,58.9,46.9,120.5,6.9,178.7c-23.2,33.4-54.4,66.1-69.6,104.1
				c-15.2,37.4-7.5,73.8,10.5,108.9c4.2,8.5,9.4,16.6,13.5,25.2c0.9,2.2,2.3,4.7,1,7c-2.4,1.9-5.9,1-8.7,0.6
				c-67.1-13.8-116.7-87.4-113.2-154.4c1.3-29.1,12.1-57.2,28.6-81.1c19.8-29.2,48.9-51.3,69.5-81.4c18.6-26.9,29.8-58.4,34.3-90.7
				C257.9,73,258.4,58.8,259,44.7z"/>
			<path class="st3" d="M356.4,225.9c0.1-0.2,0.1-0.3,0.3-0.5c0.2-0.1,0.3,0,0.6-0.1c2,1,3.6,2.6,5.2,4.1c45,40,65.8,101.7,48,160
				c-6.4,21-18.1,40.2-33.4,56.1c-12.5,13.2-22.3,19.2-37.7,28.2c-6.4,3.7-12.5,7.6-16.7,12.2c-2.8,2.8-4.8,6.3-7.1,9.4
				c-8.2-2.3-28.6-34.2-32.4-42.6c-15.4-33.6-8.5-69.2,6.4-101.6c14.5-31.3,36.4-56.6,52.3-87.2C348,251.8,354.3,239.4,356.4,225.9z
				"/>
		</g>
	</g>
</g>
</svg>
