<svg width="100" height="100" viewBox="0 0 100 100" fill="none" xmlns="http://www.w3.org/2000/svg">
<g clip-path="url(#clip0_15_86)">
<path fill-rule="evenodd" clip-rule="evenodd" d="M50 100C77.6142 100 100 77.6142 100 50C100 22.3858 77.6142 0 50 0C22.3858 0 0 22.3858 0 50C0 77.6142 22.3858 100 50 100ZM76.7159 29.9756C79.6263 29.6341 82.3948 28.8657 84.9716 27.7273H85C83.0699 30.6169 80.6422 33.1393 77.8303 35.1764C77.859 35.7998 77.8732 36.4236 77.8729 37.0476C77.8729 56.0653 63.4271 78 37.0059 78C29.2038 78.0091 21.5642 75.7664 15 71.5398C16.1363 71.6649 17.2784 71.729 18.4216 71.7319C24.8894 71.7423 31.1718 69.5666 36.2534 65.5563C33.2547 65.5028 30.348 64.5092 27.9417 62.715C25.5353 60.9208 23.7502 58.4162 22.8369 55.553C24.9897 55.9753 27.2109 55.89 29.3251 55.304C22.7518 53.9878 17.804 48.1679 17.804 41.1955V41.0176C19.7957 42.1334 22.0257 42.7532 24.3064 42.8248C21.267 40.7864 19.1156 37.6651 18.289 34.0947C17.4623 30.5243 18.0224 26.7724 19.8555 23.6008C23.4634 28.0464 27.9626 31.683 33.0619 34.2752C38.1611 36.8674 43.7467 38.3573 49.457 38.6484C48.7488 35.5657 49.0722 32.3351 50.3772 29.4547C51.6821 26.5744 53.8963 24.2043 56.6781 22.7098C59.46 21.2154 62.6551 20.6797 65.7708 21.1853C68.8865 21.6909 71.7497 23.2097 73.919 25.5075C77.1844 24.8672 80.2652 23.6577 83.0337 22.0213C81.9689 25.3795 79.6831 28.1969 76.7159 29.9756Z" fill="white"/>
</g>
<defs>
<clipPath id="clip0_15_86">
<rect width="100" height="100" fill="white"/>
</clipPath>
</defs>
</svg>
