<?xml version="1.0" encoding="utf-8"?>
<!-- Generator: Adobe Illustrator 25.0.0, SVG Export Plug-In . SVG Version: 6.00 Build 0)  -->
<svg version="1.1" id="Layer_1" xmlns="http://www.w3.org/2000/svg" xmlns:xlink="http://www.w3.org/1999/xlink" x="0px" y="0px"
   viewBox="0 0 48 48" style="enable-background:new 0 0 48 48;" xml:space="preserve">
<style type="text/css">
  .st0{fill:#FFFFFF;}
</style>
<path class="st0" d="M24,0C10.7,0,0,10.7,0,24s10.7,24,24,24s24-10.7,24-24S37.3,0,24,0z M25.9,37h-3.8v-8.5h3.8V37z M34.6,23.4
  h-6.4l4.6,4.4l-2.5,2.5L24,24.1l-6.2,6.2l-2.5-2.5l4.6-4.5h-6.4v-3.6h6.4l-4.6-4.3l2.5-2.6l4.3,4.5V11h3.8v6.3l4.3-4.5l2.5,2.6
  l-4.6,4.3h6.4C34.6,19.8,34.6,23.4,34.6,23.4z"/>
</svg>