<?xml version="1.0" encoding="utf-8"?>
<!-- Generator: Adobe Illustrator 25.0.0, SVG Export Plug-In . SVG Version: 6.00 Build 0)  -->
<svg version="1.1" id="Layer_1" xmlns="http://www.w3.org/2000/svg" xmlns:xlink="http://www.w3.org/1999/xlink" x="0px" y="0px"
	 viewBox="0 0 100 100" style="enable-background:new 0 0 100 100;" xml:space="preserve">
<style type="text/css">
	.st0{fill-rule:evenodd;clip-rule:evenodd;fill:#FC04DA;}
	.st1{clip-path:url(#SVGID_2_);}
	.st2{fill-rule:evenodd;clip-rule:evenodd;fill:#FFFFFF;}
</style>
<path class="st0" d="M50.8,95.3L50.8,95.3C26,95.3,5.9,75.2,5.9,50.5v0C5.9,25.7,26,5.6,50.8,5.6h0c24.8,0,44.9,20.1,44.9,44.9v0
	C95.6,75.2,75.6,95.3,50.8,95.3z"/>
<g>
	<defs>
		<rect id="SVGID_1_" width="100" height="100"/>
	</defs>
	<clipPath id="SVGID_2_">
		<use xlink:href="#SVGID_1_"  style="overflow:visible;"/>
	</clipPath>
	<g class="st1">
		<path class="st2" d="M50,100c27.6,0,50-22.4,50-50S77.6,0,50,0S0,22.4,0,50S22.4,100,50,100z M76.7,30c2.9-0.3,5.7-1.1,8.3-2.2h0
			c-1.9,2.9-4.4,5.4-7.2,7.4c0,0.6,0,1.2,0,1.9c0,19-14.4,41-40.9,41c-7.8,0-15.4-2.2-22-6.5c1.1,0.1,2.3,0.2,3.4,0.2
			c6.5,0,12.8-2.2,17.8-6.2c-3-0.1-5.9-1-8.3-2.8c-2.4-1.8-4.2-4.3-5.1-7.2c2.2,0.4,4.4,0.3,6.5-0.2c-6.6-1.3-11.5-7.1-11.5-14.1V41
			c2,1.1,4.2,1.7,6.5,1.8c-3-2-5.2-5.2-6-8.7c-0.8-3.6-0.3-7.3,1.6-10.5c3.6,4.4,8.1,8.1,13.2,10.7c5.1,2.6,10.7,4.1,16.4,4.4
			c-0.7-3.1-0.4-6.3,0.9-9.2c1.3-2.9,3.5-5.3,6.3-6.7c2.8-1.5,6-2,9.1-1.5c3.1,0.5,6,2,8.1,4.3c3.3-0.6,6.3-1.8,9.1-3.5
			C82,25.4,79.7,28.2,76.7,30z"/>
	</g>
</g>
</svg>
